<svg class="animated" id="freepik_stories-memory-storage" xmlns="http://www.w3.org/2000/svg" viewBox="0 0 500 500" version="1.1" xmlns:xlink="http://www.w3.org/1999/xlink" xmlns:svgjs="http://svgjs.com/svgjs"><style>svg#freepik_stories-memory-storage:not(.animated) .animable {opacity: 0;}svg#freepik_stories-memory-storage.animated #freepik--Shadow--inject-7 {animation: 6s Infinite  linear floating;animation-delay: 0s;}svg#freepik_stories-memory-storage.animated #freepik--Folder--inject-7 {animation: 6s Infinite  linear shake;animation-delay: -0.5s;}            @keyframes floating {                0% {                    opacity: 1;                    transform: translateY(0px);                }                50% {                    transform: translateY(-10px);                }                100% {                    opacity: 1;                    transform: translateY(0px);                }            }                    @keyframes shake {                10%, 90% {                    transform: translate3d(-1px, 0, 0);                  }                  20%, 80% {                    transform: translate3d(2px, 0, 0);                  }                  30%, 50%, 70% {                    transform: translate3d(-4px, 0, 0);                  }                  40%, 60% {                    transform: translate3d(4px, 0, 0);                  }            }        </style><g id="freepik--background-complete--inject-7" class="animable" style="transform-origin: 250px 228.23px;"><rect y="382.4" width="500" height="0.25" style="fill: rgb(235, 235, 235); transform-origin: 250px 382.525px;" id="el9i7hsr98ljq" class="animable"></rect><rect x="416.78" y="398.49" width="33.12" height="0.25" style="fill: rgb(235, 235, 235); transform-origin: 433.34px 398.615px;" id="elaca6yle5cjq" class="animable"></rect><rect x="322.53" y="401.21" width="8.69" height="0.25" style="fill: rgb(235, 235, 235); transform-origin: 326.875px 401.335px;" id="el02qfszmc7iuo" class="animable"></rect><rect x="396.59" y="389.21" width="19.19" height="0.25" style="fill: rgb(235, 235, 235); transform-origin: 406.185px 389.335px;" id="elh7goizf5v9" class="animable"></rect><rect x="52.46" y="390.89" width="43.19" height="0.25" style="fill: rgb(235, 235, 235); transform-origin: 74.055px 391.015px;" id="el940bpechk4" class="animable"></rect><rect x="104.56" y="390.89" width="6.33" height="0.25" style="fill: rgb(235, 235, 235); transform-origin: 107.725px 391.015px;" id="el4nvjesk213" class="animable"></rect><rect x="131.47" y="395.11" width="93.68" height="0.25" style="fill: rgb(235, 235, 235); transform-origin: 178.31px 395.235px;" id="el4w4lawtwz7p" class="animable"></rect><path d="M237,337.8H43.91a5.71,5.71,0,0,1-5.7-5.71V60.66A5.71,5.71,0,0,1,43.91,55H237a5.71,5.71,0,0,1,5.71,5.71V332.09A5.71,5.71,0,0,1,237,337.8ZM43.91,55.2a5.46,5.46,0,0,0-5.45,5.46V332.09a5.46,5.46,0,0,0,5.45,5.46H237a5.47,5.47,0,0,0,5.46-5.46V60.66A5.47,5.47,0,0,0,237,55.2Z" style="fill: rgb(235, 235, 235); transform-origin: 140.46px 196.4px;" id="eletk2edev68l" class="animable"></path><path d="M453.31,337.8H260.21a5.72,5.72,0,0,1-5.71-5.71V60.66A5.72,5.72,0,0,1,260.21,55h193.1A5.71,5.71,0,0,1,459,60.66V332.09A5.71,5.71,0,0,1,453.31,337.8ZM260.21,55.2a5.47,5.47,0,0,0-5.46,5.46V332.09a5.47,5.47,0,0,0,5.46,5.46h193.1a5.47,5.47,0,0,0,5.46-5.46V60.66a5.47,5.47,0,0,0-5.46-5.46Z" style="fill: rgb(235, 235, 235); transform-origin: 356.75px 196.4px;" id="elkqz3fyg2rl" class="animable"></path><path d="M85.63,102.85A23.88,23.88,0,0,1,118.46,80.9a28.88,28.88,0,0,1,54.14,6.39A24.85,24.85,0,0,1,171,136.93H91.91a17.62,17.62,0,0,1-6.28-34.08Z" style="fill: rgb(224, 224, 224); transform-origin: 135.013px 100.811px;" id="eloxjommt129" class="animable"></path><path d="M366.09,297.76a14.75,14.75,0,0,1,20.26-13.54,17.81,17.81,0,0,1,33.4,3.94,15.33,15.33,0,0,1-1,30.63H370a10.87,10.87,0,0,1-3.87-21Z" style="fill: rgb(224, 224, 224); transform-origin: 396.662px 296.498px;" id="elodj482k36n" class="animable"></path><path d="M102.15,254.23a25,25,0,0,1,34.42-23,30.26,30.26,0,0,1,56.74,6.7,26,26,0,0,1-1.69,52H108.73a18.47,18.47,0,0,1-6.58-35.72Z" style="fill: rgb(240, 240, 240); transform-origin: 154.372px 252.087px;" id="elwwgfqurfwl" class="animable"></path><path d="M119.39,278a3.78,3.78,0,1,1-3.78-3.78A3.78,3.78,0,0,1,119.39,278Z" style="fill: rgb(230, 230, 230); transform-origin: 115.61px 278px;" id="elwiva0qaqmo" class="animable"></path><path d="M133.64,278a3.78,3.78,0,1,1-3.78-3.78A3.78,3.78,0,0,1,133.64,278Z" style="fill: rgb(255, 255, 255); transform-origin: 129.86px 278px;" id="elhcr8ild4gir" class="animable"></path><path d="M360.7,133.26a17.35,17.35,0,0,1,23.84-15.94,21,21,0,0,1,39.3,4.64,18,18,0,0,1-1.18,36H365.25a12.79,12.79,0,0,1-4.55-24.74Z" style="fill: rgb(245, 245, 245); transform-origin: 396.859px 131.798px;" id="ele211h5t3f7j" class="animable"></path><path d="M413.08,149a2.45,2.45,0,1,1-2.44-2.44A2.45,2.45,0,0,1,413.08,149Z" style="fill: rgb(255, 255, 255); transform-origin: 410.63px 149.01px;" id="el944o3sq77y9" class="animable"></path><path d="M422.3,149a2.45,2.45,0,1,1-2.45-2.44A2.45,2.45,0,0,1,422.3,149Z" style="fill: rgb(255, 255, 255); transform-origin: 419.85px 149.01px;" id="elgzrg3omz7vu" class="animable"></path><path d="M403.86,149a2.45,2.45,0,1,1-2.44-2.44A2.45,2.45,0,0,1,403.86,149Z" style="fill: rgb(230, 230, 230); transform-origin: 401.41px 149.01px;" id="el0zkdu59jxvcn" class="animable"></path></g><g id="freepik--Shadow--inject-7" class="animable" style="transform-origin: 250px 416.24px;"><ellipse id="freepik--path--inject-7" cx="250" cy="416.24" rx="193.89" ry="11.32" style="fill: rgb(245, 245, 245); transform-origin: 250px 416.24px;" class="animable"></ellipse></g><g id="freepik--Cloud--inject-7" class="animable" style="transform-origin: 193.926px 209.18px;"><path d="M201.44,97.43H183.06a58.88,58.88,0,0,0-54.26,36H114.17a50.45,50.45,0,1,0,0,100.89h87.27Z" style="fill: rgb(27, 97, 89); transform-origin: 132.225px 165.877px;" id="eltcs42al22yn" class="animable"></path><path d="M158,100.26l-.41-.91a62.24,62.24,0,0,1,7.08-2.66l.29,1A62.07,62.07,0,0,0,158,100.26Z" style="fill: rgb(27, 97, 89); transform-origin: 161.275px 98.475px;" id="elnpkjzksarjm" class="animable"></path><path d="M135.17,117.89l-.78-.63a62.06,62.06,0,0,1,16.48-14.41l.52.86A61,61,0,0,0,135.17,117.89Z" style="fill: rgb(27, 97, 89); transform-origin: 142.89px 110.37px;" id="el67612qjun7a" class="animable"></path><g id="eliqzk90gej5q"><path d="M201.44,97.43H183.06a58.88,58.88,0,0,0-54.26,36H114.17a50.45,50.45,0,1,0,0,100.89h87.27Z" style="opacity: 0.2; transform-origin: 132.225px 165.877px;" class="animable"></path></g><g id="elwkut23gdk58"><path d="M132.29,126.5h26.38l19.5-17.33H147.79A59.11,59.11,0,0,0,132.29,126.5Z" style="fill: rgb(27, 97, 89); opacity: 0.5; transform-origin: 155.23px 117.835px;" class="animable"></path></g><g id="el0lz9t42zvxj"><path d="M72.34,155.67A50,50,0,0,0,64.9,173H95V155.67Z" style="fill: rgb(27, 97, 89); opacity: 0.5; transform-origin: 79.95px 164.335px;" class="animable"></path></g><g id="elwg2ieko0epr"><path d="M195.83,101.47H161.59a58.28,58.28,0,0,0-10.46,5.36h25.2Z" style="fill: rgb(27, 97, 89); opacity: 0.5; transform-origin: 173.48px 104.15px;" class="animable"></path></g><path d="M301.86,172.23a50.47,50.47,0,0,0-46.1-38.71,58.91,58.91,0,0,0-109.36,1.85,50.44,50.44,0,1,0-13.84,98.95H293.22a31.65,31.65,0,0,0,8.64-62.09Z" style="fill: rgb(27, 97, 89); transform-origin: 203.492px 165.876px;" id="el1x6awh52l61" class="animable"></path><g id="ela13uz3ys2m9"><path d="M300.77,176.08l-2.27-.64-.54-2.29a46.68,46.68,0,0,0-42.44-35.64l-2.49-.14-1-2.3a54.79,54.79,0,0,0-50.63-33.64c-.71,0-1.41,0-2.11,0a54.79,54.79,0,0,1,48.49,33.6l1,2.3,2.49.14a46.68,46.68,0,0,1,42.44,35.64l.54,2.29,2.27.64A27.65,27.65,0,0,1,289,230.32h4.25a27.65,27.65,0,0,0,7.55-54.24Z" style="opacity: 0.2; transform-origin: 260.079px 165.875px;" class="animable"></path></g><path d="M296.52,176.08l-2.27-.64-.54-2.29a46.68,46.68,0,0,0-42.44-35.64l-2.49-.14-1-2.3a54.79,54.79,0,0,0-48.49-33.6h-.07a55.23,55.23,0,0,0-49.12,35.32l-1.3,3.43-3.53-1-.31-.08a46.48,46.48,0,0,0-12.44-1.7c-.73,0-1.45,0-2.18,0a46.45,46.45,0,0,0,2.18,92.84H289a27.65,27.65,0,0,0,7.55-54.24Z" style="fill: rgb(255, 255, 255); transform-origin: 201.431px 165.875px;" id="elzndwpeh3q1h" class="animable"></path><polygon points="181.36 170.72 181.36 210.41 221.36 210.41 221.36 170.72 234 170.72 201.36 134.03 168.72 170.72 181.36 170.72" style="fill: rgb(27, 97, 89); transform-origin: 201.36px 172.22px;" id="elzsh89bu8008" class="animable"></polygon><path d="M168.11,261.34h12.44a0,0,0,0,1,0,0v20.56a5.2,5.2,0,0,1-5.2,5.2h-2a5.2,5.2,0,0,1-5.2-5.2V261.34A0,0,0,0,1,168.11,261.34Z" style="fill: rgb(27, 97, 89); transform-origin: 174.33px 274.22px;" id="el6gnul0x9na8" class="animable"></path><g id="elmizyej32cag"><path d="M168.11,261.34h12.44a0,0,0,0,1,0,0v20.56a5.2,5.2,0,0,1-5.2,5.2h-2a5.2,5.2,0,0,1-5.2-5.2V261.34A0,0,0,0,1,168.11,261.34Z" style="opacity: 0.2; transform-origin: 174.33px 274.22px;" class="animable"></path></g><path d="M162.56,234.32h23.56a0,0,0,0,1,0,0V257.9a9.84,9.84,0,0,1-9.84,9.84h-3.88a9.84,9.84,0,0,1-9.84-9.84V234.32a0,0,0,0,1,0,0Z" style="fill: rgb(27, 97, 89); transform-origin: 174.34px 251.03px;" id="el67g7clf04x" class="animable"></path><g id="elbs37h7fdezh"><polygon points="186.11 240.22 162.56 243.78 162.56 234.32 186.11 234.32 186.11 240.22" style="opacity: 0.2; transform-origin: 174.335px 239.05px;" class="animable"></polygon></g><circle cx="181.17" cy="252.08" r="3.13" style="fill: rgb(255, 255, 255); transform-origin: 181.17px 252.08px;" id="elywa9uqvnx1l" class="animable"></circle><g id="ela6ft7n6hh6"><circle cx="172.83" cy="252.08" r="3.13" style="fill: rgb(255, 255, 255); opacity: 0.5; transform-origin: 172.83px 252.08px;" class="animable"></circle></g><path d="M252.78,321.67H200.33a28.54,28.54,0,0,1-28.5-28.5v-6.08h5v6.08a23.54,23.54,0,0,0,23.5,23.5h52.45Z" style="fill: rgb(27, 97, 89); transform-origin: 212.305px 304.38px;" id="elf3rrf0e2885" class="animable"></path></g><g id="freepik--Server--inject-7" class="animable" style="transform-origin: 320.505px 306.28px;"><rect x="276.2" y="196.33" width="112.03" height="219.9" rx="13.04" style="fill: rgb(27, 97, 89); transform-origin: 332.215px 306.28px;" id="el6rxns52q7ej" class="animable"></rect><g id="ele9398wonf8"><rect x="276.2" y="196.33" width="112.03" height="219.9" rx="13.04" style="opacity: 0.2; transform-origin: 332.215px 306.28px;" class="animable"></rect></g><rect x="252.78" y="196.33" width="112.03" height="219.9" rx="13.04" style="fill: rgb(27, 97, 89); transform-origin: 308.795px 306.28px;" id="elel2yyu78ck" class="animable"></rect><g id="elvqd8t4ok9r"><rect x="203.19" y="254.62" width="211.21" height="103.33" rx="8.69" style="opacity: 0.2; transform-origin: 308.795px 306.285px; transform: rotate(90deg);" class="animable"></rect></g><g id="el3lin8t40x9e"><rect x="205.21" y="256.64" width="211.21" height="99.29" rx="8.69" style="fill: rgb(255, 255, 255); transform-origin: 310.815px 306.285px; transform: rotate(90deg);" class="animable"></rect></g><g id="elx3xnhzzl9ok"><path d="M346.93,226.11H274.69a6.79,6.79,0,0,1-6.76-6.76h0a6.79,6.79,0,0,1,6.76-6.77h72.24a6.79,6.79,0,0,1,6.77,6.77h0A6.79,6.79,0,0,1,346.93,226.11Z" style="fill: rgb(27, 97, 89); opacity: 0.3; transform-origin: 310.815px 219.345px;" class="animable"></path></g><path d="M323.12,220.82H273.61a1.47,1.47,0,0,1-1.48-1.47h0a1.48,1.48,0,0,1,1.48-1.48h49.51a1.47,1.47,0,0,1,1.47,1.48h0A1.47,1.47,0,0,1,323.12,220.82Z" style="fill: rgb(255, 255, 255); transform-origin: 298.36px 219.345px;" id="el2341sh9ateg" class="animable"></path><circle cx="340.99" cy="219.35" r="1.48" style="fill: rgb(27, 97, 89); transform-origin: 340.99px 219.35px;" id="elh674ynql54e" class="animable"></circle><circle cx="347.51" cy="219.35" r="1.48" style="fill: rgb(27, 97, 89); transform-origin: 347.51px 219.35px;" id="eloosrr5oow5o" class="animable"></circle><circle cx="334.47" cy="219.35" r="1.48" style="fill: rgb(27, 97, 89); transform-origin: 334.47px 219.35px;" id="elnli719yuzd8" class="animable"></circle><g id="eli5at1yxb2ef"><path d="M346.93,247.84H274.69a6.78,6.78,0,0,1-6.76-6.76h0a6.78,6.78,0,0,1,6.76-6.76h72.24a6.79,6.79,0,0,1,6.77,6.76h0A6.79,6.79,0,0,1,346.93,247.84Z" style="fill: rgb(27, 97, 89); opacity: 0.3; transform-origin: 310.815px 241.08px;" class="animable"></path></g><path d="M323.12,242.56H273.61a1.48,1.48,0,0,1-1.48-1.48h0a1.48,1.48,0,0,1,1.48-1.48h49.51a1.48,1.48,0,0,1,1.47,1.48h0A1.48,1.48,0,0,1,323.12,242.56Z" style="fill: rgb(255, 255, 255); transform-origin: 298.36px 241.08px;" id="ellkvfq6s7c6" class="animable"></path><circle cx="340.99" cy="241.08" r="1.48" style="fill: rgb(27, 97, 89); transform-origin: 340.99px 241.08px;" id="eljsw3dbcwc8h" class="animable"></circle><circle cx="347.51" cy="241.08" r="1.48" style="fill: rgb(27, 97, 89); transform-origin: 347.51px 241.08px;" id="el58bjpmgewqr" class="animable"></circle><g id="eldqwqs2hjqe8"><circle cx="334.47" cy="241.08" r="1.48" style="fill: rgb(27, 97, 89); opacity: 0.3; transform-origin: 334.47px 241.08px;" class="animable"></circle></g><g id="el93mrb95as74"><path d="M346.93,269.58H274.69a6.79,6.79,0,0,1-6.76-6.76h0a6.79,6.79,0,0,1,6.76-6.77h72.24a6.79,6.79,0,0,1,6.77,6.77h0A6.79,6.79,0,0,1,346.93,269.58Z" style="fill: rgb(27, 97, 89); opacity: 0.3; transform-origin: 310.815px 262.815px;" class="animable"></path></g><path d="M323.12,264.29H273.61a1.47,1.47,0,0,1-1.48-1.47h0a1.48,1.48,0,0,1,1.48-1.48h49.51a1.47,1.47,0,0,1,1.47,1.48h0A1.47,1.47,0,0,1,323.12,264.29Z" style="fill: rgb(255, 255, 255); transform-origin: 298.36px 262.815px;" id="elx25n8sehod" class="animable"></path><circle cx="340.99" cy="262.82" r="1.48" style="fill: rgb(27, 97, 89); transform-origin: 340.99px 262.82px;" id="ele28dbwxvv4e" class="animable"></circle><circle cx="347.51" cy="262.82" r="1.48" style="fill: rgb(27, 97, 89); transform-origin: 347.51px 262.82px;" id="eluuo5d46265" class="animable"></circle><g id="elquza2g6rggl"><circle cx="334.47" cy="262.82" r="1.48" style="fill: rgb(27, 97, 89); opacity: 0.6; transform-origin: 334.47px 262.82px;" class="animable"></circle></g><g id="el02i7526p9d5b"><rect x="267.93" y="277.79" width="85.76" height="13.52" rx="6.76" style="fill: rgb(27, 97, 89); opacity: 0.3; transform-origin: 310.81px 284.55px;" class="animable"></rect></g><path d="M323.12,286H273.61a1.48,1.48,0,0,1-1.48-1.48h0a1.48,1.48,0,0,1,1.48-1.48h49.51a1.48,1.48,0,0,1,1.47,1.48h0A1.48,1.48,0,0,1,323.12,286Z" style="fill: rgb(255, 255, 255); transform-origin: 298.36px 284.52px;" id="elmho2xw7snup" class="animable"></path><circle cx="340.99" cy="284.55" r="1.48" style="fill: rgb(27, 97, 89); transform-origin: 340.99px 284.55px;" id="elf9sxnj3k9m" class="animable"></circle><g id="el9subwhxhxzb"><circle cx="347.51" cy="284.55" r="1.48" style="fill: rgb(27, 97, 89); opacity: 0.3; transform-origin: 347.51px 284.55px;" class="animable"></circle></g><g id="el3z7sl2lch4m"><circle cx="334.47" cy="284.55" r="1.48" style="fill: rgb(27, 97, 89); opacity: 0.6; transform-origin: 334.47px 284.55px;" class="animable"></circle></g><g id="el5anwe950q2y"><path d="M346.93,313.05H274.69a6.79,6.79,0,0,1-6.76-6.76h0a6.79,6.79,0,0,1,6.76-6.77h72.24a6.79,6.79,0,0,1,6.77,6.77h0A6.79,6.79,0,0,1,346.93,313.05Z" style="fill: rgb(27, 97, 89); opacity: 0.3; transform-origin: 310.815px 306.285px;" class="animable"></path></g><path d="M323.12,307.76H273.61a1.47,1.47,0,0,1-1.48-1.47h0a1.48,1.48,0,0,1,1.48-1.48h49.51a1.47,1.47,0,0,1,1.47,1.48h0A1.47,1.47,0,0,1,323.12,307.76Z" style="fill: rgb(255, 255, 255); transform-origin: 298.36px 306.285px;" id="elecdjvkmp3g4" class="animable"></path><circle cx="340.99" cy="306.29" r="1.48" style="fill: rgb(27, 97, 89); transform-origin: 340.99px 306.29px;" id="el1wn2sn4gjmz" class="animable"></circle><g id="el4fl35tkwr42"><circle cx="347.51" cy="306.29" r="1.48" style="fill: rgb(27, 97, 89); opacity: 0.6; transform-origin: 347.51px 306.29px;" class="animable"></circle></g><circle cx="334.47" cy="306.29" r="1.48" style="fill: rgb(27, 97, 89); transform-origin: 334.47px 306.29px;" id="eltnozmnydqln" class="animable"></circle><g id="ellm4jvj1hcjd"><path d="M346.93,334.78H274.69a6.78,6.78,0,0,1-6.76-6.76h0a6.78,6.78,0,0,1,6.76-6.76h72.24A6.79,6.79,0,0,1,353.7,328h0A6.79,6.79,0,0,1,346.93,334.78Z" style="fill: rgb(27, 97, 89); opacity: 0.3; transform-origin: 310.815px 328.02px;" class="animable"></path></g><path d="M323.12,329.5H273.61a1.48,1.48,0,0,1-1.48-1.48h0a1.48,1.48,0,0,1,1.48-1.48h49.51a1.48,1.48,0,0,1,1.47,1.48h0A1.48,1.48,0,0,1,323.12,329.5Z" style="fill: rgb(255, 255, 255); transform-origin: 298.36px 328.02px;" id="elq1pt9yzqfa" class="animable"></path><g id="el6c9ta6yzit"><circle cx="340.99" cy="328.02" r="1.48" style="fill: rgb(27, 97, 89); opacity: 0.3; transform-origin: 340.99px 328.02px;" class="animable"></circle></g><circle cx="347.51" cy="328.02" r="1.48" style="fill: rgb(27, 97, 89); transform-origin: 347.51px 328.02px;" id="elcijq4zt7c88" class="animable"></circle><circle cx="334.47" cy="328.02" r="1.48" style="fill: rgb(27, 97, 89); transform-origin: 334.47px 328.02px;" id="ela74t3ieyfr" class="animable"></circle><g id="el1rq6dh6kevq"><path d="M346.93,356.52H274.69a6.78,6.78,0,0,1-6.76-6.76h0a6.79,6.79,0,0,1,6.76-6.77h72.24a6.79,6.79,0,0,1,6.77,6.77h0A6.79,6.79,0,0,1,346.93,356.52Z" style="fill: rgb(27, 97, 89); opacity: 0.3; transform-origin: 310.815px 349.755px;" class="animable"></path></g><path d="M323.12,351.24H273.61a1.48,1.48,0,0,1-1.48-1.48h0a1.48,1.48,0,0,1,1.48-1.48h49.51a1.47,1.47,0,0,1,1.47,1.48h0A1.48,1.48,0,0,1,323.12,351.24Z" style="fill: rgb(255, 255, 255); transform-origin: 298.36px 349.76px;" id="elwp1418aqcym" class="animable"></path><g id="ela1gn35b2v1i"><circle cx="340.99" cy="349.76" r="1.48" style="fill: rgb(27, 97, 89); opacity: 0.3; transform-origin: 340.99px 349.76px;" class="animable"></circle></g><circle cx="347.51" cy="349.76" r="1.48" style="fill: rgb(27, 97, 89); transform-origin: 347.51px 349.76px;" id="elq4hjye3uf7" class="animable"></circle><g id="elaea7uehkqa"><circle cx="334.47" cy="349.76" r="1.48" style="fill: rgb(27, 97, 89); opacity: 0.3; transform-origin: 334.47px 349.76px;" class="animable"></circle></g><g id="elfi8hpo2muyw"><rect x="267.93" y="364.73" width="85.76" height="13.52" rx="6.76" style="fill: rgb(27, 97, 89); opacity: 0.3; transform-origin: 310.81px 371.49px;" class="animable"></rect></g><path d="M323.12,373H273.61a1.48,1.48,0,0,1-1.48-1.48h0a1.48,1.48,0,0,1,1.48-1.48h49.51a1.48,1.48,0,0,1,1.47,1.48h0A1.48,1.48,0,0,1,323.12,373Z" style="fill: rgb(255, 255, 255); transform-origin: 298.36px 371.52px;" id="elwf8cbrfrt4" class="animable"></path><circle cx="340.99" cy="371.49" r="1.48" style="fill: rgb(27, 97, 89); transform-origin: 340.99px 371.49px;" id="el8alit3deipc" class="animable"></circle><circle cx="347.51" cy="371.49" r="1.48" style="fill: rgb(27, 97, 89); transform-origin: 347.51px 371.49px;" id="elo21v0xc82rq" class="animable"></circle><circle cx="334.47" cy="371.49" r="1.48" style="fill: rgb(27, 97, 89); transform-origin: 334.47px 371.49px;" id="eltbi4wsshtw" class="animable"></circle><g id="el9c8fxesqe5k"><path d="M346.93,400H274.69a6.78,6.78,0,0,1-6.76-6.76h0a6.79,6.79,0,0,1,6.76-6.77h72.24a6.79,6.79,0,0,1,6.77,6.77h0A6.79,6.79,0,0,1,346.93,400Z" style="fill: rgb(27, 97, 89); opacity: 0.3; transform-origin: 310.815px 393.235px;" class="animable"></path></g><path d="M323.12,394.71H273.61a1.48,1.48,0,0,1-1.48-1.48h0a1.48,1.48,0,0,1,1.48-1.48h49.51a1.47,1.47,0,0,1,1.47,1.48h0A1.48,1.48,0,0,1,323.12,394.71Z" style="fill: rgb(255, 255, 255); transform-origin: 298.36px 393.23px;" id="elyin230fikb" class="animable"></path><circle cx="340.99" cy="393.23" r="1.48" style="fill: rgb(27, 97, 89); transform-origin: 340.99px 393.23px;" id="el5d8q6j2gh1" class="animable"></circle><circle cx="347.51" cy="393.23" r="1.48" style="fill: rgb(27, 97, 89); transform-origin: 347.51px 393.23px;" id="elw31mlt0qw5" class="animable"></circle><g id="el2sat6boull2"><circle cx="334.47" cy="393.23" r="1.48" style="fill: rgb(27, 97, 89); opacity: 0.6; transform-origin: 334.47px 393.23px;" class="animable"></circle></g><g id="elreakj9b9b6"><rect x="368.5" y="241.74" width="16.04" height="18.42" rx="2.97" style="opacity: 0.2; transform-origin: 376.52px 250.95px;" class="animable"></rect></g></g><g id="freepik--Character--inject-7" class="animable" style="transform-origin: 311.101px 146.857px;"><polygon points="262.92 195.2 274.23 200.11 267.74 207.68 258.29 203.58 262.92 195.2" style="fill: rgb(206, 122, 99); transform-origin: 266.26px 201.44px;" id="elkmw65teicts" class="animable"></polygon><g id="el4lrke4u7x6e"><polygon points="262.92 195.2 274.23 200.12 270.6 204.36 260.32 199.9 262.92 195.2" style="opacity: 0.2; transform-origin: 267.275px 199.78px;" class="animable"></polygon></g><path d="M269.19,211.68l-1.27-.34a2.37,2.37,0,0,1-1.61-1.51h0l-.83.35a2.33,2.33,0,0,1-1.52.1l-17.29-4.65a7,7,0,0,1,1.56-3.25s7.71,1.64,10-.12a.57.57,0,0,1,.61-.08c1.39.7,6.84,3.34,10.42,3.14a.7.7,0,0,1,.71.88A37.89,37.89,0,0,0,269.19,211.68Z" style="fill: rgb(38, 50, 56); transform-origin: 258.332px 206.903px;" id="elxqxsdt6kstl" class="animable"></path><path d="M364.54,159.6l-4.84,10.14c-7.15,15-24.77,22.51-38.83,16.62-8.21-3.45-17.18-10.72-23.28-14.05-5.22,11.43-15,24.05-22.47,32.83L260,197.52c5.65-13,14.44-33.2,20-46.34A13.46,13.46,0,0,1,291.78,143C316.92,142.33,364.54,159.6,364.54,159.6Z" style="fill: rgb(38, 50, 56); transform-origin: 312.27px 174.061px;" id="ellvzw3qnvvl9" class="animable"></path><polygon points="291.72 228.35 302.59 227.87 300.58 239.81 291.49 240.23 291.72 228.35" style="fill: rgb(206, 122, 99); transform-origin: 297.04px 234.05px;" id="eloo6tgnwl0l" class="animable"></polygon><g id="elvv7zw7e3a5n"><polygon points="291.72 228.36 302.59 227.88 301.77 232.78 291.62 233.44 291.72 228.36" style="opacity: 0.2; transform-origin: 297.105px 230.66px;" class="animable"></polygon></g><path d="M304.75,240.36l-1.25.39a2.35,2.35,0,0,1-2.17-.41h0l-.51.74a2.39,2.39,0,0,1-1.23.91l-17.08,5.36a6.91,6.91,0,0,1-.43-3.58s7.38-2.76,8.38-5.49a.58.58,0,0,1,.48-.39c1.54-.15,7.56-.86,10.47-2.95a.72.72,0,0,1,1.08.37A37,37,0,0,0,304.75,240.36Z" style="fill: rgb(38, 50, 56); transform-origin: 293.379px 241.085px;" id="elp7yljrgnf5" class="animable"></path><path d="M371.59,155.58l-.08,10.72c-.13,15.81-13.53,29.92-29.53,31.1-9.34.69-22,.91-29.25.77-1.06,11.06-4.52,24.11-8,33.56L289,230.63c-.42-13.42-1-32.44-1.53-45.06A13.24,13.24,0,0,1,295,173.51C318.61,161.89,371.59,155.58,371.59,155.58Z" style="fill: rgb(38, 50, 56); transform-origin: 329.53px 193.655px;" id="elegm18xazl4w" class="animable"></path><g id="ely69zymsi84j"><path d="M301.38,231.87l-.11,0a.38.38,0,0,1-.25-.46c2.38-7.83,6.67-32.24,6.86-43.44a.37.37,0,0,1,.13-.28.39.39,0,0,1,.29-.09c23,3.06,38.55,2,45-3,11.35-8.83,11.19-23.11,8.31-30.56a.37.37,0,0,1,.22-.48.37.37,0,0,1,.48.21c3,7.66,3.13,22.34-8.55,31.42-6.68,5.19-21.87,6.27-45.16,3.21-.29,11.43-4.52,35.46-6.88,43.22A.38.38,0,0,1,301.38,231.87Z" style="opacity: 0.1; transform-origin: 332.515px 192.702px;" class="animable"></path></g><g id="eldeal531k21j"><path d="M297,173.63a114,114,0,0,1-9.35,15.5c.08,2.22.16,4.57.25,7,5.57-8.79,9.11-22.52,9.11-22.52Z" style="opacity: 0.2; transform-origin: 292.33px 184.87px;" class="animable"></path></g><path d="M337.68,105.14c-.43,1.55-.82,2.9-1.29,4.31s-.93,2.79-1.42,4.18c-1,2.76-2.06,5.51-3.28,8.23s-2.47,5.44-4,8.14a64,64,0,0,1-5.18,8.12l-.64.85a4.16,4.16,0,0,1-1.52,1.23,25.73,25.73,0,0,1-3.39,1.35,26.82,26.82,0,0,1-3.48.87,25,25,0,0,1-3.56.37c-.6,0-1.21,0-1.81,0l-.93-.07c-.33,0-.6-.09-1-.12a3.5,3.5,0,0,1-3.29-3.69,3.88,3.88,0,0,1,.19-1l1.33-3.67a2.1,2.1,0,0,1,.41-.48l.5-.48,1-.93c.67-.62,1.34-1.2,2-1.8s1.27-1.17,1.87-1.72,1.17-1.14,1.74-1.67l-2.16,2.09a69.76,69.76,0,0,0,3.22-6.53l.76-1.78.72-1.82c.49-1.21,1-2.45,1.43-3.69.92-2.5,1.83-5,2.7-7.58l2.57-7.57.06-.18a8.6,8.6,0,0,1,16.44,5Z" style="fill: rgb(206, 122, 99); transform-origin: 320.412px 118.575px;" id="el8m9b86gloxs" class="animable"></path><path d="M329.43,91.07c-4.57,1.31-10.71,6.35-12.82,17.76,3.06,4.75,17.41,1.09,17.41,1.09Z" style="fill: rgb(27, 97, 89); transform-origin: 325.315px 101.168px;" id="elvhye2znj7cm" class="animable"></path><path d="M308,134.36l.46,4.94c-1.38,5-7.54,2.13-7.54,2.13l-3.52-.2a2.62,2.62,0,0,1-2.32-2.5l-.35-3.45a2.75,2.75,0,0,1,2.19-3.14l3.07-.33a5.45,5.45,0,0,1,2.62.36Z" style="fill: rgb(206, 122, 99); transform-origin: 301.577px 137.014px;" id="el52nhxz90x93" class="animable"></path><path d="M331.64,90.38a156.64,156.64,0,0,1,22.8-3.1,14.41,14.41,0,0,1,15.21,14.78c-.64,25.18,2.91,51.66,2.4,56.52,0,0-53.11,7.65-61.25-8.14-3.42-22.39,7.63-19.54,8.52-45.25C319.55,98.46,325.05,91.79,331.64,90.38Z" style="fill: rgb(27, 97, 89); transform-origin: 341.123px 123.845px;" id="elyksjk5tytc" class="animable"></path><path d="M327.45,113.15l.18-.05,0-.19a3.47,3.47,0,0,1,3.23-3h.2l.07-.19a4,4,0,0,1,3.73-2.77h0a4.91,4.91,0,0,1,4.13,3l.12.29.28-.08h0a3.76,3.76,0,0,1,1-.13h.17a4.22,4.22,0,0,1,3.79,4,3.5,3.5,0,0,1-3.5,3.86l-12.57-.21a2.51,2.51,0,0,1-2.36-2.37A2.13,2.13,0,0,1,327.45,113.15Z" style="fill: rgb(255, 255, 255); transform-origin: 335.143px 112.42px;" id="el9fa1g54enhc" class="animable"></path><path d="M369.08,95.83l.49,1.08.42,1c.28.65.52,1.3.78,2,.5,1.3.93,2.61,1.36,3.93a74.57,74.57,0,0,1,2.11,8.1c.28,1.39.53,2.79.74,4.21s.33,2.87.43,4.34a44.93,44.93,0,0,1-.26,9.15l-.09.73a6.37,6.37,0,0,1-1,2.65,20,20,0,0,1-3.35,3.83,35.88,35.88,0,0,1-3.33,2.64,50.3,50.3,0,0,1-6.63,3.84c-2.23,1.06-4.46,2-6.72,2.81a63.43,63.43,0,0,1-6.94,2.06,4.34,4.34,0,0,1-3.68-7.62l.19-.14c1.67-1.34,3.49-2.68,5.2-4s3.42-2.67,5-4,3.11-2.72,4.42-4a21.22,21.22,0,0,0,1.68-1.94,5.84,5.84,0,0,0,.87-1.46l-1.1,3.38a41.4,41.4,0,0,0-.58-6.07c-.37-2.12-.87-4.29-1.45-6.47s-1.26-4.39-2-6.58c-.36-1.09-.76-2.18-1.14-3.27l-1.14-3.07-.17-.46a8.59,8.59,0,0,1,15.89-6.52Z" style="fill: rgb(206, 122, 99); transform-origin: 358.656px 119.569px;" id="ellfm3q5gtqr" class="animable"></path><path d="M357.23,87.4c3.67.4,11.44,3.16,16.55,13.69-5,9.91-18.11,13.69-18.11,13.69S346.56,92.67,357.23,87.4Z" style="fill: rgb(27, 97, 89); transform-origin: 362.913px 101.09px;" id="elsv1q81jopvn" class="animable"></path><path d="M327.24,158.47H284.08c-1.88,0-2.28-.43-.89-1L302.88,150a20.25,20.25,0,0,1,5.95-1H352c1.88,0,2.28.44.89,1l-19.7,7.52A20.2,20.2,0,0,1,327.24,158.47Z" style="fill: rgb(27, 97, 89); transform-origin: 318.04px 153.735px;" id="elyrss487n0re" class="animable"></path><g id="elb6gve34hbh"><path d="M327.24,158.47H284.08c-1.88,0-2.28-.43-.89-1L302.88,150a20.25,20.25,0,0,1,5.95-1H352c1.88,0,2.28.44.89,1l-19.7,7.52A20.2,20.2,0,0,1,327.24,158.47Z" style="opacity: 0.4; transform-origin: 318.04px 153.735px;" class="animable"></path></g><path d="M327.24,156.69H284.08a4.32,4.32,0,0,1-4.05-3.42l-4.89-26.6a2.78,2.78,0,0,1,2.79-3.42H321.1a4.32,4.32,0,0,1,4,3.42l4.88,26.6A2.77,2.77,0,0,1,327.24,156.69Z" style="fill: rgb(27, 97, 89); transform-origin: 302.561px 139.97px;" id="el3gg9n1xpd6g" class="animable"></path><g id="el3j3c8ivmuv4"><path d="M327.24,156.69H284.08a4.32,4.32,0,0,1-4.05-3.42l-4.89-26.6a2.78,2.78,0,0,1,2.79-3.42H321.1a4.32,4.32,0,0,1,4,3.42l4.88,26.6A2.77,2.77,0,0,1,327.24,156.69Z" style="opacity: 0.3; transform-origin: 302.561px 139.97px;" class="animable"></path></g><g id="el74qk4cnhpbe"><path d="M326.23,156.69H284.08a4.32,4.32,0,0,1-4.05-3.42l-4.89-26.6a2.78,2.78,0,0,1,2.79-3.42h42.16a4.3,4.3,0,0,1,4,3.42l4.89,26.6A2.77,2.77,0,0,1,326.23,156.69Z" style="fill: rgb(27, 97, 89); opacity: 0.3; transform-origin: 302.061px 139.97px;" class="animable"></path></g><path d="M345.85,142.21l2.16,2.27c2,4.81-4.6,6.35-4.6,6.35l-2.89,2a2.64,2.64,0,0,1-3.37-.53l-2.41-2.5a2.74,2.74,0,0,1-.22-3.82l2.2-2.15a5.43,5.43,0,0,1,2.29-1.34l3.82-1.11A3,3,0,0,1,345.85,142.21Z" style="fill: rgb(206, 122, 99); transform-origin: 341.118px 147.238px;" id="el9du0wj70pfh" class="animable"></path><path d="M334.53,93a6.92,6.92,0,0,1,2.63-3.71,6.4,6.4,0,0,0-.73-4.25l11.92-10c.74,5,2.49,11.6,4.94,13.76-2.73,2.52-7.75,7.06-14,8.13S334,95.38,334.53,93Z" style="fill: rgb(206, 122, 99); transform-origin: 343.715px 86.1082px;" id="elrv1vxkk6xq" class="animable"></path><g id="el1hsscnnxxax"><path d="M336.65,85.48l10.18-4.24c-1.28,5.17-7,9.45-9.58,7.4A6.35,6.35,0,0,0,336.65,85.48Z" style="opacity: 0.2; transform-origin: 341.74px 85.2019px;" class="animable"></path></g><path d="M336.06,69.48a6.64,6.64,0,1,1-6.63-6.63A6.63,6.63,0,0,1,336.06,69.48Z" style="fill: rgb(38, 50, 56); transform-origin: 329.42px 69.49px;" id="elpnh3kd1922m" class="animable"></path><path d="M347.47,65.75c1.56,7.58,2.46,12.77-1,17.09-6.9,8.59-13.17,5.92-17-1.06-3.43-6.28-5.41-17.62,1.12-22.51A10.67,10.67,0,0,1,347.47,65.75Z" style="fill: rgb(206, 122, 99); transform-origin: 337.57px 72.6809px;" id="el9ynbuaf494p" class="animable"></path><path d="M332.58,63.75c-1.53,1.75-5.58,5.41-11.47,2.11s-3.49-11.22.06-13.75a10.86,10.86,0,0,1,10.27-1.36s-.48-4.21,5.44-4.38,5.62,4,5.62,4,7.67-3.19,11.33,2.71c3.41,5.49-1.67,9.75-1.67,9.75s5.31,2.28,3.56,7.8a6.33,6.33,0,0,1-5.8,4.7s-5.67.4-6.63-3.73a10.48,10.48,0,0,1,.84-7.19S335,68,332.58,63.75Z" style="fill: rgb(38, 50, 56); transform-origin: 336.808px 60.8527px;" id="el24k9ppip8k" class="animable"></path><path d="M341.29,72.69h0l-1.4-.15a.23.23,0,0,1-.22-.27.24.24,0,0,1,.27-.22l1.35.13,7.07-1.71a.24.24,0,0,1,.3.18.25.25,0,0,1-.18.3l-7.11,1.73Z" style="fill: rgb(38, 50, 56); transform-origin: 344.167px 71.5755px;" id="el8i3lq6e0nu" class="animable"></path><path d="M351.48,63.65c-.23,0-.46,0-.7,0a.5.5,0,1,1,.11-1,3.62,3.62,0,0,0,3.51-1.29,2.45,2.45,0,0,0,.16-2.53.49.49,0,0,1,.21-.67.51.51,0,0,1,.68.21,3.48,3.48,0,0,1-.23,3.55A4.33,4.33,0,0,1,351.48,63.65Z" style="fill: rgb(38, 50, 56); transform-origin: 353.081px 60.8813px;" id="elmziuxebxw6h" class="animable"></path><path d="M324,68.54a11.08,11.08,0,0,1-3-.44,6.4,6.4,0,0,1-5-5.64c-.33-2.94,1.12-6.05,3.36-7.23a.5.5,0,1,1,.47.88c-1.9,1-3.12,3.69-2.84,6.24a5.38,5.38,0,0,0,4.22,4.79c5.86,1.61,8.82-2.16,10.05-4.56a.51.51,0,0,1,.68-.21.5.5,0,0,1,.21.67C331,65.26,328.57,68.54,324,68.54Z" style="fill: rgb(38, 50, 56); transform-origin: 324.079px 61.8469px;" id="el93ybr4wudbd" class="animable"></path><path d="M335.1,80a6.69,6.69,0,0,1-1.12.36.2.2,0,0,1-.23-.16.23.23,0,0,1,.16-.26,5.9,5.9,0,0,0,4-3.18.2.2,0,0,1,.26-.12.2.2,0,0,1,.11.27A6.25,6.25,0,0,1,335.1,80Z" style="fill: rgb(38, 50, 56); transform-origin: 336.022px 78.4948px;" id="el70a3j2t108q" class="animable"></path><g id="eluz74923fl6"><path d="M338.07,69.85a3.56,3.56,0,0,1,2.59-.84A7,7,0,0,1,338.07,69.85Z" style="opacity: 0.2; transform-origin: 339.365px 69.4245px;" class="animable"></path></g><g id="elsuu8q6x4e8k"><path d="M338.31,70.45a3,3,0,0,1,2.46-.15A5.73,5.73,0,0,1,338.31,70.45Z" style="opacity: 0.2; transform-origin: 339.54px 70.3123px;" class="animable"></path></g><g id="elry85ljkr6v"><path d="M327.83,72.74s-.86-.48-1.15.07A1.5,1.5,0,0,0,327.83,72.74Z" style="opacity: 0.2; transform-origin: 327.255px 72.7193px;" class="animable"></path></g><g id="elzgoiydltyq"><path d="M327.93,73.34s-.72-.45-.8.27A.72.72,0,0,0,327.93,73.34Z" style="opacity: 0.2; transform-origin: 327.53px 73.4217px;" class="animable"></path></g><path d="M352.16,74a7.28,7.28,0,0,1-3.61,4.28c-2.31,1.17-4-.77-3.77-3.2.18-2.19,1.6-5.43,4.12-5.58A3.33,3.33,0,0,1,352.16,74Z" style="fill: rgb(206, 122, 99); transform-origin: 348.566px 74.0635px;" id="el479g4v4fub" class="animable"></path><path d="M336.2,70.78c.17.61,0,1.19-.42,1.29s-.86-.3-1-.91,0-1.19.42-1.29S336,70.17,336.2,70.78Z" style="fill: rgb(38, 50, 56); transform-origin: 335.496px 70.97px;" id="eldgq8ovb1frd" class="animable"></path><path d="M329.79,72.61c.16.61,0,1.18-.43,1.29s-.85-.31-1-.91,0-1.19.43-1.29S329.62,72,329.79,72.61Z" style="fill: rgb(38, 50, 56); transform-origin: 329.077px 72.8011px;" id="el5hfdv3hldnn" class="animable"></path><path d="M326.09,77.15a1.19,1.19,0,0,1-1-.58l-1-1.82a.78.78,0,0,1-.05-.68.72.72,0,0,1,.51-.39l5.2-1.15a1.16,1.16,0,0,1,1.2.55l1,1.82a.78.78,0,0,1,.05.68.71.71,0,0,1-.51.39l-5.2,1.16ZM329.93,73h-.09l-5.21,1.16a.2.2,0,0,0-.15.11.25.25,0,0,0,0,.23l1,1.82a.66.66,0,0,0,.65.31l5.2-1.15a.23.23,0,0,0,.16-.11.25.25,0,0,0,0-.23l-1-1.82A.68.68,0,0,0,329.93,73Z" style="fill: rgb(38, 50, 56); transform-origin: 328.02px 74.8311px;" id="els78d4s6t46" class="animable"></path><path d="M331.92,72.67l2.2,4.81a4.5,4.5,0,0,1-3.1.93A11,11,0,0,1,331.92,72.67Z" style="fill: rgb(186, 77, 60); transform-origin: 332.536px 75.5466px;" id="el3vtrdpgmtcl" class="animable"></path><path d="M334.71,75.24a1.19,1.19,0,0,1-1-.58l-1-1.82a.78.78,0,0,1-.05-.68.71.71,0,0,1,.51-.39l5.2-1.16a1.16,1.16,0,0,1,1.2.56l1,1.82a.75.75,0,0,1,.05.68.72.72,0,0,1-.5.39h0l-5.21,1.16Zm3.84-4.15h-.09l-5.2,1.15a.23.23,0,0,0-.16.11.25.25,0,0,0,0,.23l1,1.82a.67.67,0,0,0,.66.32l5.2-1.16a.24.24,0,0,0,.16-.11.29.29,0,0,0,0-.23l-1-1.82A.66.66,0,0,0,338.55,71.09Zm1.51,2.73h0Z" style="fill: rgb(38, 50, 56); transform-origin: 336.642px 72.9165px;" id="elk7f5kb9oaxp" class="animable"></path><path d="M331.13,74.2l-.08,0a.24.24,0,0,1-.16-.3s.36-1.09,2.49-.66a.24.24,0,0,1,.19.29.24.24,0,0,1-.29.2c-1.64-.33-1.91.32-1.92.32A.25.25,0,0,1,331.13,74.2Z" style="fill: rgb(38, 50, 56); transform-origin: 332.228px 73.6698px;" id="elykrmsdxzptn" class="animable"></path><path d="M337.67,68.58a.33.33,0,0,0,.15-.11.38.38,0,0,0-.07-.52,3.68,3.68,0,0,0-3.31-.71.36.36,0,0,0-.23.47.38.38,0,0,0,.47.23h0a2.94,2.94,0,0,1,2.62.59A.38.38,0,0,0,337.67,68.58Z" style="fill: rgb(38, 50, 56); transform-origin: 336.04px 67.8585px;" id="eloc28qegwab" class="animable"></path><path d="M325.79,71.71a.36.36,0,0,0,.25-.24,2.92,2.92,0,0,1,1.82-2,.36.36,0,0,0,.25-.45.38.38,0,0,0-.46-.26,3.66,3.66,0,0,0-2.32,2.44.37.37,0,0,0,.25.46A.38.38,0,0,0,325.79,71.71Z" style="fill: rgb(38, 50, 56); transform-origin: 326.72px 70.2292px;" id="elh0ce3tdvlf" class="animable"></path></g><g id="freepik--Folder--inject-7" class="animable animator-active" style="transform-origin: 212.872px 378.285px;"><g id="elh7s0hfwn208"><path d="M252.78,337.44V403.2a13.08,13.08,0,0,0,13,13h16l-5.72-72.57Z" style="opacity: 0.2; transform-origin: 267.28px 376.82px;" class="animable"></path></g><path d="M228.94,338l-6.39,8a6.08,6.08,0,0,1-4.7,2.31H160.14a6.15,6.15,0,0,0-6,5.54l-5.08,61.43a5,5,0,0,0,5.09,5.55h113a6.13,6.13,0,0,0,6-5.55l6.13-74a5,5,0,0,0-5.09-5.54H233.63A6.1,6.1,0,0,0,228.94,338Z" style="fill: rgb(27, 97, 89); transform-origin: 214.169px 378.285px;" id="el2fl7ui7uc43" class="animable"></path><g id="elwknmexcdlvn"><path d="M228.94,338l-6.39,8a6.08,6.08,0,0,1-4.7,2.31H160.14a6.15,6.15,0,0,0-6,5.54l-5.08,61.43a5,5,0,0,0,5.09,5.55h113a6.13,6.13,0,0,0,6-5.55l6.13-74a5,5,0,0,0-5.09-5.54H233.63A6.1,6.1,0,0,0,228.94,338Z" style="opacity: 0.3; transform-origin: 214.169px 378.285px;" class="animable"></path></g><path d="M206.12,342.37l-5.18,7.56a5.21,5.21,0,0,1-4.34,2.18H149.13a5,5,0,0,0-5.16,5.26l4.24,58.19a5.91,5.91,0,0,0,5.93,5.25h113a5,5,0,0,0,5.16-5.25l-5.11-70.12a5.92,5.92,0,0,0-5.93-5.25h-50.8A5.21,5.21,0,0,0,206.12,342.37Z" style="fill: rgb(27, 97, 89); transform-origin: 208.135px 380.501px;" id="el4m1fvf1g8jp" class="animable"></path></g><defs>     <filter id="active" height="200%">         <feMorphology in="SourceAlpha" result="DILATED" operator="dilate" radius="2"></feMorphology>                <feFlood flood-color="#32DFEC" flood-opacity="1" result="PINK"></feFlood>        <feComposite in="PINK" in2="DILATED" operator="in" result="OUTLINE"></feComposite>        <feMerge>            <feMergeNode in="OUTLINE"></feMergeNode>            <feMergeNode in="SourceGraphic"></feMergeNode>        </feMerge>    </filter>    <filter id="hover" height="200%">        <feMorphology in="SourceAlpha" result="DILATED" operator="dilate" radius="2"></feMorphology>                <feFlood flood-color="#ff0000" flood-opacity="0.5" result="PINK"></feFlood>        <feComposite in="PINK" in2="DILATED" operator="in" result="OUTLINE"></feComposite>        <feMerge>            <feMergeNode in="OUTLINE"></feMergeNode>            <feMergeNode in="SourceGraphic"></feMergeNode>        </feMerge>            <feColorMatrix type="matrix" values="0   0   0   0   0                0   1   0   0   0                0   0   0   0   0                0   0   0   1   0 "></feColorMatrix>    </filter></defs></svg>